<?xml version="1.0" encoding="UTF-8"?>
<svg version="1.1" xmlns="http://www.w3.org/2000/svg" width="20" height="20">
<path d="M0 0 C1.98 0 3.96 0 6 0 C6.33 1.98 6.66 3.96 7 6 C9.97 6.495 9.97 6.495 13 7 C13 8.98 13 10.96 13 13 C11.02 13.33 9.04 13.66 7 14 C6.67 15.98 6.34 17.96 6 20 C4.02 20 2.04 20 0 20 C-0.33 18.02 -0.66 16.04 -1 14 C-3.97 13.505 -3.97 13.505 -7 13 C-7 11.02 -7 9.04 -7 7 C-5.02 6.67 -3.04 6.34 -1 6 C-0.67 4.02 -0.34 2.04 0 0 Z " fill="#0067FF" transform="translate(7,0)"/>
</svg>
